<?xml version="1.0" standalone="no"?>
<!DOCTYPE svg PUBLIC "-//W3C//DTD SVG 20010904//EN"
 "http://www.w3.org/TR/2001/REC-SVG-20010904/DTD/svg10.dtd">
<svg version="1.0" xmlns="http://www.w3.org/2000/svg"
 width="640.000000pt" height="640.000000pt" viewBox="0 0 640.000000 640.000000"
 preserveAspectRatio="xMidYMid meet">

<g transform="translate(0.000000,640.000000) scale(0.100000,-0.100000)"
fill="#000000" stroke="none">
<path d="M1620 5490 c-105 -13 -189 -38 -290 -87 -82 -40 -108 -60 -190 -142
-114 -115 -168 -209 -205 -357 l-25 -97 0 -1657 c0 -1796 -2 -1725 54 -1874
89 -235 278 -402 543 -478 l78 -23 820 0 820 0 86 128 c190 282 339 468 524
652 251 250 472 396 725 478 111 36 251 61 310 56 l35 -4 3 -180 c3 -207 4
-205 -85 -205 -122 0 -303 -53 -478 -140 -276 -137 -491 -337 -699 -649 -42
-62 -76 -119 -76 -127 0 -11 27 -14 139 -14 l140 0 70 94 c221 294 583 514
875 533 79 6 90 4 102 -12 18 -24 18 -136 2 -157 -8 -10 -48 -23 -103 -33
-212 -39 -437 -161 -599 -324 -107 -108 -119 -103 277 -99 306 4 338 6 412 27
232 65 416 213 513 414 84 172 77 7 77 1932 0 1630 -1 1713 -18 1775 -38 133
-111 256 -209 353 -94 92 -213 158 -358 198 l-85 24 -1560 1 c-858 1 -1589 -2
-1625 -6z m1269 -195 c16 -8 40 -34 55 -59 62 -105 120 -145 222 -154 112 -9
211 44 270 143 35 61 60 80 104 80 74 0 126 -85 93 -149 -27 -51 -225 -380
-238 -394 -10 -11 -21 -3 -57 45 -25 32 -62 84 -83 116 -58 87 -71 82 -173
-59 -46 -63 -87 -114 -91 -114 -8 0 -192 319 -232 402 -21 43 -21 49 -8 85 10
26 25 44 49 55 43 22 53 22 89 3z m-305 -252 c10 -21 88 -187 172 -370 84
-182 163 -351 174 -374 l22 -42 -53 -53 c-100 -101 -134 -97 -200 25 l-44 81
-147 -152 -147 -153 0 373 c-1 205 -5 372 -10 372 -11 0 -150 -65 -416 -195
-256 -126 -286 -133 -336 -77 -39 43 -39 91 -1 130 17 19 159 93 387 202 512
247 559 269 571 269 6 1 18 -16 28 -36z m1634 -152 c202 -98 434 -211 515
-251 88 -44 155 -83 164 -96 19 -30 19 -88 0 -118 -9 -12 -29 -29 -46 -36 -38
-15 -69 -5 -236 78 -61 30 -111 50 -113 44 -2 -6 -20 -37 -41 -69 -148 -228
-345 -396 -701 -600 -191 -110 -794 -446 -871 -486 -71 -37 -79 -39 -112 -28
-43 14 -67 48 -67 94 0 42 27 78 83 109 23 14 107 63 187 110 80 46 271 156
425 243 456 258 577 338 713 469 85 82 202 227 202 250 0 9 -348 186 -421 214
-5 2 -21 -18 -36 -43 -64 -107 -199 -304 -267 -389 -147 -181 -402 -409 -941
-838 -188 -150 -214 -168 -248 -168 -48 0 -56 20 -48 117 l6 72 170 138 c314
253 629 526 760 657 142 143 215 236 405 520 68 102 131 186 138 186 8 0 179
-80 380 -179z m-2584 -636 c244 -126 432 -321 556 -580 57 -119 83 -193 117
-335 22 -93 26 -134 30 -353 4 -179 9 -247 17 -244 6 3 220 88 476 190 584
233 715 290 921 402 361 197 721 470 909 691 116 136 125 144 160 144 23 0 42
-10 67 -35 32 -32 35 -40 30 -75 -8 -58 -81 -155 -232 -305 -155 -156 -296
-270 -505 -410 -362 -242 -546 -329 -1435 -683 l-400 -159 -5 -123 c-5 -118
-6 -122 -33 -146 -41 -35 -99 -33 -138 5 l-29 29 0 354 c-1 530 -18 679 -99
876 -43 104 -120 230 -159 260 -33 25 -35 25 -75 11 -32 -11 -46 -23 -60 -51
-25 -51 -16 -82 42 -160 103 -138 142 -224 160 -352 7 -50 11 -346 11 -827 l0
-749 -22 -1 c-13 -1 -35 0 -51 1 -42 2 -94 -19 -117 -47 -32 -40 -26 -89 14
-129 32 -32 38 -34 105 -34 l72 0 -3 -112 -3 -113 -172 -3 -171 -2 -21 26 -21
27 0 1396 c0 778 -4 1402 -9 1410 -5 7 -31 25 -57 40 -66 35 -91 84 -71 134
32 76 95 86 201 32z m3213 -1035 c51 0 63 -20 63 -110 0 -52 -4 -82 -12 -87
-7 -4 -67 -8 -133 -9 -206 -2 -367 -41 -571 -139 -306 -148 -595 -397 -954
-825 -225 -268 -343 -372 -526 -464 -82 -41 -221 -89 -311 -107 l-63 -13 0
-138 c0 -167 -6 -178 -95 -178 -46 0 -60 4 -80 25 l-25 24 0 259 0 259 107 6
c256 15 497 125 687 311 39 39 134 143 211 231 467 538 860 816 1314 930 77
20 237 35 306 29 28 -2 64 -4 82 -4z m38 -414 c23 -16 33 -113 16 -154 -12
-29 -14 -29 -115 -35 -288 -18 -573 -149 -860 -396 -316 -272 -545 -583 -831
-1126 -85 -162 -95 -176 -132 -192 -62 -26 -143 22 -143 85 0 25 79 182 218
432 407 734 984 1258 1517 1380 100 23 302 27 330 6z"/>
</g>
</svg>
